<?xml version="1.0" encoding="UTF-8" standalone="no"?>
<!-- Created with Inkscape (http://www.inkscape.org/) -->

<svg
   width="163.99998"
   height="72"
   viewBox="0 0 43.391662 19.05"
   version="1.1"
   id="svg5"
   sodipodi:docname="splash.svg"
   inkscape:version="1.3.2 (091e20ef0f, 2023-11-25)"
   xmlns:inkscape="http://www.inkscape.org/namespaces/inkscape"
   xmlns:sodipodi="http://sodipodi.sourceforge.net/DTD/sodipodi-0.dtd"
   xmlns="http://www.w3.org/2000/svg"
   xmlns:svg="http://www.w3.org/2000/svg">
  <sodipodi:namedview
     id="namedview1"
     pagecolor="#505050"
     bordercolor="#eeeeee"
     borderopacity="1"
     inkscape:showpageshadow="0"
     inkscape:pageopacity="0"
     inkscape:pagecheckerboard="0"
     inkscape:deskcolor="#d1d1d1"
     showgrid="true"
     inkscape:zoom="6.2258542"
     inkscape:cx="90.670288"
     inkscape:cy="40.556683"
     inkscape:window-width="2560"
     inkscape:window-height="1333"
     inkscape:window-x="0"
     inkscape:window-y="0"
     inkscape:window-maximized="1"
     inkscape:current-layer="svg5">
    <inkscape:grid
       id="grid1"
       units="px"
       originx="4.2333317"
       originy="5.291667"
       spacingx="0.26458333"
       spacingy="0.26458333"
       empcolor="#0099e5"
       empopacity="0.30196078"
       color="#0099e5"
       opacity="0.14901961"
       empspacing="4"
       dotted="false"
       gridanglex="30"
       gridanglez="30"
       visible="true" />
  </sodipodi:namedview>
  <defs
     id="defs2" />
  <rect
     style="fill:#00003c;fill-opacity:1;stroke-width:1.05833;stroke-linecap:round;stroke-linejoin:round"
     id="rect1"
     width="43.391663"
     height="19.049999"
     x="0"
     y="0" />
  <g
     id="layer1"
     transform="translate(4.2333317,5.2916668)">
    <path
       style="fill:#167ac3;fill-opacity:1;stroke:none;stroke-width:0.264583px;stroke-linecap:butt;stroke-linejoin:miter;stroke-opacity:1"
       d="M 0.52916666,3.4395834 7.4083332,0.52916666 7.6729166,0.79375006 3.7041666,7.6729166 Z"
       id="path3256" />
    <path
       id="rect236"
       style="fill:#74c084;fill-opacity:1;stroke:none;stroke-width:0.655637;stroke-linecap:round;stroke-linejoin:round;stop-color:#000000"
       d="m 1.0583333,1.0583333 v 3.175 3.175 h 1.0583334 v -3.175 H 4.2333333 A 2.1166666,2.1166666 0 0 0 6.35,2.1166667 V 1.0583333 H 6.0662964 4.2333333 2.4003703 2.1166667 Z" />
    <circle
       style="fill:#74c084;fill-opacity:1;stroke:none;stroke-width:0.655637;stroke-linecap:round;stroke-linejoin:round;stop-color:#000000"
       id="path1013"
       cx="6.3499999"
       cy="6.3499999"
       r="1.0583333" />
  </g>
  <path
     d="m 16.609734,7.4429126 q 0.618677,0 1.023197,0.3212363 0.410469,0.3212362 0.410469,0.9399135 0,0.4164174 -0.196311,0.7079096 -0.190363,0.2914922 -0.517548,0.4342639 -0.321236,0.1427717 -0.719807,0.1427717 h -1.094583 v 1.4574604 q 0,0.06544 -0.04759,0.113028 -0.04759,0.04759 -0.113028,0.04759 h -0.243902 q -0.06544,0 -0.113027,-0.04759 -0.04759,-0.04759 -0.04759,-0.113028 V 7.6035307 q 0,-0.065437 0.04759,-0.1130276 0.04759,-0.047591 0.113027,-0.047591 z m -0.02974,2.0107012 q 0.434264,0 0.666268,-0.1844135 0.232,-0.1903622 0.232,-0.5651379 0,-0.725756 -0.898272,-0.725756 h -1.064839 v 1.4753074 z m 3.890523,0.196311 v -0.077335 q 0,-0.2914922 -0.196311,-0.4461615 -0.190362,-0.1606182 -0.499701,-0.1606182 -0.237952,0 -0.374775,0.083283 -0.130874,0.077335 -0.249851,0.2379528 -0.03569,0.047591 -0.07733,0.065437 -0.04164,0.017847 -0.113028,0.017847 h -0.178465 q -0.06544,0 -0.118976,-0.047591 -0.04759,-0.04759 -0.04164,-0.1130276 0.01785,-0.1784646 0.172516,-0.3509803 0.160618,-0.1784646 0.422366,-0.2914922 0.261748,-0.1130276 0.559189,-0.1130276 0.553241,0 0.892323,0.3093386 0.345032,0.3093387 0.345032,0.8685278 v 1.8143904 q 0,0.06544 -0.04759,0.113028 -0.04759,0.04759 -0.113027,0.04759 h -0.220107 q -0.06544,0 -0.113027,-0.04759 -0.04759,-0.04759 -0.04759,-0.113028 v -0.243901 q -0.09518,0.214157 -0.404519,0.339083 -0.309339,0.124925 -0.618678,0.124925 -0.30339,0 -0.541342,-0.107079 -0.237965,-0.113028 -0.368839,-0.30339 -0.124925,-0.190362 -0.124925,-0.428315 0,-0.446161 0.333134,-0.696012 0.333133,-0.255799 0.886374,-0.3450313 z m 0,0.4759052 -0.70196,0.113028 q -0.386674,0.05949 -0.600831,0.196311 -0.214158,0.130874 -0.214158,0.333134 0,0.14872 0.136823,0.267697 0.136823,0.118976 0.416417,0.118976 0.428316,0 0.696012,-0.243901 0.267697,-0.243902 0.267697,-0.636524 z m 2.980357,-1.6121298 q 0.06544,0 0.113027,0.047591 0.04759,0.047591 0.04759,0.1130275 V 8.864681 q 0,0.065437 -0.04759,0.1130276 -0.04759,0.047591 -0.113027,0.047591 h -0.345032 q -0.333134,0 -0.511599,0.1784646 -0.172515,0.1725158 -0.172515,0.5056497 v 1.7370541 q 0,0.06544 -0.04759,0.113028 -0.04759,0.04759 -0.113027,0.04759 h -0.220107 q -0.06544,0 -0.113027,-0.04759 -0.04759,-0.04759 -0.04759,-0.113028 V 8.6743183 q 0,-0.065437 0.04759,-0.1130275 0.04759,-0.047591 0.113027,-0.047591 h 0.220107 q 0.06544,0 0.113027,0.047591 0.04759,0.047591 0.04759,0.1130275 v 0.1844135 q 0.118976,-0.1784646 0.285543,-0.2617481 0.166567,-0.083284 0.434264,-0.083284 z m 1.219509,2.9327678 q 0,0.06544 -0.04759,0.113028 -0.04759,0.04759 -0.113027,0.04759 h -0.220107 q -0.06544,0 -0.113027,-0.04759 -0.04759,-0.04759 -0.04759,-0.113028 V 7.5440425 q 0,-0.065437 0.04759,-0.1130276 0.04759,-0.04759 0.113027,-0.04759 h 0.220107 q 0.06544,0 0.113027,0.04759 0.04759,0.047591 0.04759,0.1130276 z m 2.730504,-1.7965432 v -0.077335 q 0,-0.2914922 -0.196311,-0.4461615 -0.190362,-0.1606182 -0.499701,-0.1606182 -0.237953,0 -0.374775,0.083283 -0.130874,0.077335 -0.249851,0.2379528 -0.03569,0.047591 -0.07734,0.065437 -0.04164,0.017847 -0.113027,0.017847 h -0.178465 q -0.06544,0 -0.118976,-0.047591 -0.04759,-0.04759 -0.04164,-0.1130276 0.01785,-0.1784646 0.172516,-0.3509803 0.160618,-0.1784646 0.422366,-0.2914922 0.261748,-0.1130276 0.559189,-0.1130276 0.553241,0 0.892323,0.3093386 0.345032,0.3093387 0.345032,0.8685278 v 1.8143904 q 0,0.06544 -0.04759,0.113028 -0.04759,0.04759 -0.113027,0.04759 h -0.220107 q -0.06544,0 -0.113027,-0.04759 -0.04759,-0.04759 -0.04759,-0.113028 v -0.243901 q -0.09518,0.214157 -0.40452,0.339083 -0.309338,0.124925 -0.618677,0.124925 -0.30339,0 -0.541342,-0.107079 -0.237956,-0.113028 -0.36883,-0.30339 -0.124926,-0.190362 -0.124926,-0.428315 0,-0.446161 0.333134,-0.696012 Q 26.008859,9.87598 26.5621,9.7867477 Z m 0,0.4759052 -0.701961,0.113028 q -0.386673,0.05949 -0.60083,0.196311 -0.214158,0.130874 -0.214158,0.333134 0,0.14872 0.136823,0.267697 0.136823,0.118976 0.416417,0.118976 0.428315,0 0.696012,-0.243901 0.267697,-0.243902 0.267697,-0.636524 z m 4.158222,1.320638 q 0,0.06544 -0.04759,0.113028 -0.04759,0.04759 -0.113028,0.04759 h -0.220106 q -0.06544,0 -0.113028,-0.04759 -0.04759,-0.04759 -0.04759,-0.113028 V 9.87598 q 0,-0.4461615 -0.220107,-0.6781655 -0.220106,-0.232004 -0.612728,-0.232004 -0.386673,0 -0.612729,0.232004 -0.220106,0.232004 -0.220106,0.6781655 v 1.570488 q 0,0.06544 -0.04759,0.113028 -0.04759,0.04759 -0.113027,0.04759 h -0.220106 q -0.06544,0 -0.113028,-0.04759 -0.04759,-0.04759 -0.04759,-0.113028 V 8.6743183 q 0,-0.065437 0.04759,-0.1130275 0.04759,-0.047591 0.113028,-0.047591 h 0.220106 q 0.06544,0 0.113027,0.047591 0.04759,0.047591 0.04759,0.1130275 V 8.8587318 Q 29.482971,8.686216 29.709026,8.5731884 29.94103,8.454212 30.274164,8.454212 q 0.374776,0 0.666268,0.1606181 0.291492,0.1606182 0.45211,0.464008 0.166567,0.297441 0.166567,0.7079096 z m 2.111833,-0.291492 q 0.594882,0 0.803091,-0.464008 0.04164,-0.08923 0.08328,-0.124925 0.04164,-0.03569 0.113028,-0.03569 h 0.178464 q 0.06544,0 0.113028,0.04759 0.04759,0.04164 0.04759,0.10113 0,0.20226 -0.160618,0.434264 -0.160618,0.232004 -0.464008,0.392622 -0.30339,0.160618 -0.713858,0.160618 -0.422366,0 -0.731705,-0.178465 -0.30934,-0.178464 -0.475907,-0.487803 -0.166567,-0.315288 -0.184413,-0.701961 -0.0059,-0.07139 -0.0059,-0.273646 0,-0.1427712 0.0059,-0.2022594 0.05354,-0.6067796 0.410469,-0.9875041 0.356929,-0.3807245 0.981555,-0.3807245 0.410468,0 0.707909,0.1606181 0.30339,0.1546694 0.45806,0.3866733 0.160618,0.2260552 0.172515,0.4283151 0.0059,0.065437 -0.04759,0.1130276 -0.04759,0.04759 -0.113028,0.04759 H 34.67034 q -0.07139,0 -0.113028,-0.035693 -0.04164,-0.035693 -0.08328,-0.1249252 -0.208209,-0.464008 -0.803091,-0.464008 -0.327185,0 -0.571087,0.2201064 -0.243902,0.2201063 -0.279594,0.6662678 -0.0059,0.065437 -0.0059,0.2141579 0,0.136822 0.0059,0.202259 0.04164,0.446162 0.279594,0.666268 0.243902,0.220107 0.571087,0.220107 z m 3.271853,-2.700764 q 0.636524,0 1.005351,0.4045198 0.368827,0.4045197 0.368827,1.1005317 v 0.1606185 q 0,0.06544 -0.04759,0.113027 -0.04759,0.04759 -0.113027,0.04759 h -2.046394 v 0.03569 q 0.0119,0.392622 0.237952,0.618677 0.232004,0.220107 0.594882,0.220107 0.297441,0 0.458059,-0.07733 0.166567,-0.07734 0.297441,-0.220107 0.04759,-0.04759 0.08328,-0.06544 0.04164,-0.01785 0.107079,-0.01785 h 0.178464 q 0.07139,0 0.118977,0.04759 0.04759,0.04759 0.04164,0.113028 -0.02379,0.160618 -0.178464,0.333134 -0.148721,0.166567 -0.434264,0.285543 -0.279595,0.113028 -0.672217,0.113028 -0.380724,0 -0.678165,-0.172516 -0.297441,-0.178465 -0.475906,-0.487803 -0.172516,-0.309339 -0.208208,-0.696012 -0.0119,-0.178465 -0.0119,-0.273646 0,-0.095181 0.0119,-0.2736456 0.03569,-0.3688268 0.208208,-0.6662678 0.178465,-0.297441 0.469957,-0.4699568 0.297441,-0.1725158 0.684114,-0.1725158 z m 0.838784,1.3265869 v -0.017847 q 0,-0.362878 -0.232004,-0.5770355 Q 37.32352,8.96581 36.942795,8.96581 q -0.345031,0 -0.588933,0.2201064 -0.237953,0.2201063 -0.243901,0.5770355 v 0.017847 z"
     id="text1"
     style="font-size:5.94882px;line-height:1.5;font-family:Contemporary;-inkscape-font-specification:Contemporary;fill:#ffffff;fill-opacity:1;stroke-width:1.05833;stroke-linecap:round;stroke-linejoin:round"
     aria-label="Parlance" />
</svg>
